<svg width="353" height="78" xmlns="http://www.w3.org/2000/svg" xmlns:xlink="http://www.w3.org/1999/xlink" xml:space="preserve" overflow="hidden"><g transform="translate(-1003 -517)"><g><path d="M1122.66 557.137C1124.55 568.48 1114.55 574.781 1104.45 575.637 1098.03 588.693 1075.33 597.515 1055.66 588.013 1047.27 589.273 1042.63 587.206 1039.09 583.224 1046.28 574.075 1068.06 557.616 1094.66 566.11 1108.84 570.647 1112.51 560.011 1108.97 556.029 1095.58 540.906 1065.3 554.516 1064.23 555.65 1076.12 537.68 1118.61 532.639 1122.66 557.137ZM1081.86 536.495C1081.86 536.495 1072.22 533.068 1058.67 538.89 1058.67 538.89 1057.07 538.184 1057.07 538.184 1070.16 529.598 1081.62 525.994 1091.45 527.371 1085.5 520.617 1056.91 515.651 1040.59 531.833 1025.4 528.81 1010.61 538.527 1007.55 553.538 1007.1 555.758 1006.92 558.026 1007.03 560.288 1007.85 575.763 1024.88 585.492 1034.62 582.77 1034.86 582.745 1035.1 582.745 1035.34 582.77 1037.51 572.562 1046.3 548.719 1081.93 536.495ZM1163.29 550.635 1165.1 542.746 1134.72 542.746 1134.04 545.796C1133.45 547.642 1134.49 549.608 1136.36 550.185 1136.8 550.319 1137.25 550.369 1137.71 550.332L1151.84 550.332 1126.82 572.159 1125.13 579.469 1157.4 579.469 1159.23 571.403 1138.83 571.403ZM1183.69 556.986C1182.26 556.608 1174.25 555.424 1174.76 552.702 1175.27 549.98 1179.12 549.324 1180.96 549.375 1184.76 549.501 1186.06 551.139 1186.06 551.744 1186.53 553.244 1188 554.218 1189.58 554.088L1195.65 554.088C1196.31 550.408 1196.49 541.939 1182.54 541.939 1177.16 541.683 1171.92 543.72 1168.16 547.535 1166.04 550.055 1162.4 555.928 1166.12 560.439 1168.08 562.708 1173.16 564.472 1178.62 565.48 1182.13 566.161 1184.02 567.572 1183.72 569.21 1183.49 570.319 1182.08 572.815 1176.88 572.789 1174.56 572.789 1169.54 572.436 1170.48 567.27L1160.89 567.27C1159.77 571.958 1159.36 580.124 1173.85 580.124 1179.43 580.124 1190.81 579.418 1193.76 567.673 1195.88 559.305 1186.27 557.616 1183.66 556.986ZM1217.25 569.941C1215.6 571.452 1213.41 572.25 1211.16 572.159 1203.99 572.159 1204.81 565.203 1205.78 560.969 1206.74 556.734 1209.07 549.929 1215.98 549.929 1220.82 549.929 1221.38 553.029 1221.61 553.937L1231.38 553.937C1231.05 543.855 1223.14 541.788 1217.56 541.939 1202.26 542.292 1197.79 554.97 1196.42 560.843 1192.41 578.006 1203.53 580.174 1208.86 580.174 1217.22 580.38 1224.9 575.654 1228.4 568.152L1221.28 568.152C1219.72 568.105 1218.23 568.764 1217.23 569.941ZM1257.16 573.47C1254.35 576.762 1250.43 578.945 1246.12 579.62 1237.63 581.006 1225.95 580.653 1228.88 568.58 1229.43 565.209 1231.36 562.209 1234.21 560.288 1238.37 557.992 1243 556.672 1247.75 556.432 1248.47 556.432 1253.82 555.953 1254.72 552.828 1255.61 549.703 1250.71 549.551 1249.36 549.526 1246.94 549.144 1244.49 550.113 1243.01 552.046L1233.63 552.046C1237.43 542.217 1247.86 541.965 1250.66 541.965 1253.47 541.965 1266.47 541.965 1264.05 552.323 1260.38 568.101 1260.25 569.664 1257.14 573.47ZM1252.98 560.868C1251.09 561.637 1249.12 562.237 1247.12 562.657 1245.18 563.237 1241.51 563.464 1239.72 565.178 1237.94 566.891 1235.49 572.512 1241.89 572.739 1247.02 572.874 1251.46 569.214 1252.24 564.195 1252.55 562.708 1252.96 560.969 1252.96 560.969ZM1277.03 531.883 1271.93 531.883 1260.94 579.469 1270.71 579.469 1280.63 536.622C1281.25 534.773 1280.24 532.774 1278.37 532.158 1277.93 532.013 1277.47 531.954 1277.01 531.984ZM1302.38 568.051 1309.4 568.051C1305.85 575.508 1298.2 580.213 1289.86 580.073 1274.99 580.073 1275.91 566.967 1277.41 560.742 1281.65 543.452 1293.33 541.839 1298.53 541.839 1305.49 541.839 1316.38 544.661 1310.85 563.489L1286.7 563.489C1286.11 566.009 1285.6 572.134 1292.26 572.058 1294.08 572.151 1295.87 571.636 1297.36 570.597 1298.25 570.244 1299.19 568.202 1302.36 568.152ZM1288.1 557.289 1302.36 557.289C1303.56 550.534 1299.32 549.728 1296.95 549.728 1294.58 549.728 1290.01 550.66 1288.07 557.39ZM1323.32 546.653C1318.37 550.265 1314.99 555.596 1313.86 561.574L1309.75 579.367 1319.6 579.367C1319.6 579.367 1323.32 562.733 1323.96 560.464 1325.24 554.48 1330.82 550.374 1336.99 550.887L1339.26 542.645C1333.63 542.29 1328.03 543.73 1323.29 546.753ZM1340.38 535.487 1340.64 534.328 1345.89 534.328 1345.66 535.487 1343.75 535.487 1342.68 540.528 1341.27 540.528 1342.37 535.487ZM1349.03 534.328 1349.51 538.839 1352.06 534.328 1354 534.328 1352.67 540.578 1351.37 540.578 1352.52 535.538 1349.97 540.578 1348.9 540.578 1348.29 535.538 1347.32 540.578 1346.02 540.578 1347.34 534.328Z" fill="#236BF5" fill-rule="evenodd" fill-opacity="1"/></g></g></svg>